<svg id="Layer_1" data-name="Layer 1" xmlns="http://www.w3.org/2000/svg" viewBox="0 0 596.16 195.91"><defs><style>.cls-1{fill:#58595b;}.cls-2{fill:#77bc1f;}</style></defs><title>di-logo</title><path class="cls-1" d="M34.52,83.36L46.66,69.61,49,100.13Zm-22.05-14,12.39,14L10.11,100.13Zm3.92-6.19,13.19-16.3L43,63.19,29.69,78Zm-0.9-33.48L25,41.25,13.5,55.53ZM34.17,41.21l9.45-11.67,2,25.71ZM18.64,21.13H40.91L29.55,35.59ZM20.32,6H38.86v7.18H20.32V6ZM13.69,0V13.22H5.2v8.07H9.71L0,123.32H8.34l0.92-11.88L29.69,88.73l20.12,22.36,0.95,12.22h8.42l-9.79-102h5.21V13.22H45.5V0H13.69Z"/><path class="cls-1" d="M34.52,83.36L46.66,69.61,49,100.13Zm-22.05-14,12.39,14L10.11,100.13Zm3.92-6.19,13.2-16.3L43,63.19,29.69,78Zm-0.9-33.48L25,41.25,13.5,55.53ZM34.17,41.21l9.44-11.67,2,25.72ZM18.64,21.13H40.91L29.55,35.59ZM20.32,6H38.86v7.18H20.32V6ZM13.69,0V13.22H5.2v8.07H9.7L0,123.32H8.34l0.92-11.88,20.44-22.7L49.81,111.1l0.95,12.22h8.42l-9.79-102h5.21V13.22H45.5V0H13.69Z"/><path class="cls-1" d="M104.84,170.27a7.85,7.85,0,1,0,8,7.66,7.75,7.75,0,0,0-8-7.66M93.44,157.32h3.74v13.36h0.09a10,10,0,0,1,8.24-3.92,11.2,11.2,0,0,1,11.28,11.12,11.41,11.41,0,0,1-11.44,11.57,9.47,9.47,0,0,1-8.07-3.83H97.18V189H93.44V157.32Z"/><path class="cls-1" d="M141.77,176.47a7.23,7.23,0,0,0-14.32,0h14.32Zm3.29,8.29c-2.92,3.25-6,4.7-9.78,4.7-7.7,0-11.82-5.57-11.82-11.36,0-6.16,4.41-11.33,11.2-11.33S146,171.89,146,179.55H127.45a7.52,7.52,0,0,0,7.79,6.41,9.05,9.05,0,0,0,6.95-3.49Z"/><path class="cls-1" d="M154.39,162h3.74v5.25h3.46v3.29h-3.46v13.32c0,1.16.38,1.58,1.83,1.58h1.7v3.46c-0.54,0-1.42,0-2.29,0-3.83,0-5-1.33-5-4.66V170.56h-3v-3.29h3V162Z"/><path class="cls-1" d="M169.5,162h3.75v5.25h3.45v3.29h-3.45v13.32c0,1.16.37,1.58,1.83,1.58h1.71v3.46c-0.54,0-1.42,0-2.29,0-3.83,0-5-1.33-5-4.66V170.56h-3v-3.29h3V162Z"/><path class="cls-1" d="M201,176.47a7.23,7.23,0,0,0-14.32,0H201Zm3.29,8.29c-2.92,3.25-6,4.7-9.78,4.7-7.7,0-11.82-5.57-11.82-11.36,0-6.16,4.41-11.33,11.2-11.33s11.37,5.12,11.37,12.79H186.7a7.52,7.52,0,0,0,7.78,6.41,9.06,9.06,0,0,0,7-3.49Z"/><path class="cls-1" d="M213,167.27h3.74v3.08h0.09c1.87-3.37,3.66-3.58,6.83-3.58v4a7.36,7.36,0,0,0-1.71-.21c-3.12,0-5.21,2.16-5.21,6.12V189H213V167.27Z"/><polygon class="cls-1" points="223.64 194.71 226.35 195.91 231.59 185.63 227.8 183.8 223.64 194.71"/><path class="cls-1" d="M253.25,164c0-4.54,3.12-6.7,7.46-6.91v3.75H260c-1.91,0-3,1.54-3,3.45v3h3.54v3.29H257V189h-3.75v-18.4H250v-3.29h3.29V164Z"/><path class="cls-1" d="M275.73,177.51c-4.58,0-6.12,2.21-6.12,4.33s1.55,4.33,6.12,4.33,6.12-2.21,6.12-4.33-1.54-4.33-6.12-4.33m6-3.08c0-3.58-3.58-4.37-6.49-4.37a13.32,13.32,0,0,0-6,1.5l-1.62-3.12a19.77,19.77,0,0,1,7.82-1.67c5.21,0,10,2.21,10,7.38V189H282v-2.33a8.83,8.83,0,0,1-6.92,2.83c-5.29,0-9.45-3-9.45-7.78,0-4,3.37-7.45,9.41-7.45a9.87,9.87,0,0,1,6.7,2.45v-2.25Z"/><path class="cls-1" d="M296.09,182.63c0.25,2.33,2.2,3.54,4.49,3.54,3.37,0,4.29-1.83,4.29-3.12S304,180.76,301,180l-3.79-1c-3.2-.87-4.41-3-4.41-5.57,0-3.58,2.71-6.58,7.75-6.58,5.54,0,7.45,3.5,7.45,6.75h-3.5c-0.29-2.46-1.54-3.66-4-3.66s-3.92,1.41-3.92,3.12c0,1.21.67,2.12,2.41,2.62l5.08,1.45c3.42,1,4.54,2.87,4.54,5.67,0,4.41-3.87,6.74-7.87,6.74-5.08,0-8-2.7-8.16-6.82h3.5Z"/><path class="cls-1" d="M316.83,162h3.75v5.25H324v3.29h-3.46v13.32c0,1.16.38,1.58,1.83,1.58h1.71v3.46c-0.54,0-1.42,0-2.29,0-3.83,0-5-1.33-5-4.66V170.56h-3v-3.29h3V162Z"/><path class="cls-1" d="M348.34,176.47a7.24,7.24,0,0,0-14.32,0h14.32Zm3.29,8.29c-2.92,3.25-6,4.7-9.79,4.7-7.7,0-11.83-5.57-11.83-11.36a11,11,0,0,1,11.2-11.33c6.7,0,11.37,5.12,11.37,12.79H334a7.53,7.53,0,0,0,7.79,6.41,9.05,9.05,0,0,0,7-3.49Z"/><path class="cls-1" d="M360.29,167.27H364v3.08h0.09c1.87-3.37,3.66-3.58,6.83-3.58v4a7.35,7.35,0,0,0-1.71-.21c-3.12,0-5.2,2.16-5.2,6.12V189h-3.75V167.27Z"/><path class="cls-1" d="M402.18,170.27a7.85,7.85,0,1,0,7.66,7.87,7.85,7.85,0,0,0-7.66-7.87m7.66-12.95h3.74V189h-3.74v-3.33h-0.09a9.49,9.49,0,0,1-8.08,3.83,11.41,11.41,0,0,1-11.44-11.57,11.21,11.21,0,0,1,11.28-11.12,10,10,0,0,1,8.24,3.92h0.09V157.32Z"/><path class="cls-1" d="M439.69,176.47a7.24,7.24,0,0,0-14.32,0h14.32Zm3.29,8.29c-2.91,3.25-6,4.7-9.79,4.7-7.7,0-11.83-5.57-11.83-11.36,0-6.16,4.41-11.33,11.2-11.33s11.36,5.12,11.36,12.79H425.37a7.53,7.53,0,0,0,7.79,6.41,9,9,0,0,0,6.95-3.49Z"/><path class="cls-1" d="M466.59,172.43a7,7,0,0,0-5-2.16c-3.71,0-7.16,2.71-7.16,8a7.19,7.19,0,0,0,12.36,5.45L469,186.5a10.41,10.41,0,0,1-7.5,3,11,11,0,0,1-11.07-11.28,11.26,11.26,0,0,1,11.11-11.41,12,12,0,0,1,7.62,2.71Z"/><path class="cls-1" d="M476,167.27h3.75V189H476V167.27Zm1.87-9.49a2.62,2.62,0,1,1-2.62,2.62,2.61,2.61,0,0,1,2.62-2.62"/><path class="cls-1" d="M490.82,182.63c0.25,2.33,2.21,3.54,4.5,3.54,3.37,0,4.28-1.83,4.28-3.12s-0.91-2.29-3.82-3.08l-3.79-1c-3.2-.87-4.41-3-4.41-5.57,0-3.58,2.71-6.58,7.75-6.58,5.53,0,7.45,3.5,7.45,6.75h-3.5c-0.29-2.46-1.54-3.66-4-3.66s-3.91,1.41-3.91,3.12c0,1.21.66,2.12,2.41,2.62l5.08,1.45c3.42,1,4.54,2.87,4.54,5.67,0,4.41-3.87,6.74-7.87,6.74-5.07,0-8-2.7-8.16-6.82h3.49Z"/><path class="cls-1" d="M510.89,167.27h3.75V189h-3.75V167.27Zm1.88-9.49a2.62,2.62,0,1,1-2.62,2.62,2.61,2.61,0,0,1,2.62-2.62"/><path class="cls-1" d="M527,178.14a7.74,7.74,0,1,0,15.48,0,7.74,7.74,0,1,0-15.48,0m7.74-11.37a11.44,11.44,0,0,1,11.74,11.37c0,6.2-4.66,11.32-11.74,11.32s-11.74-5.12-11.74-11.32a11.44,11.44,0,0,1,11.74-11.37"/><path class="cls-1" d="M569.1,176.35c0-3.25-1.33-6.08-5-6.08-3.5,0-5.62,2.37-5.62,6.49V189H554.7V167.27h3.74v2.54h0.08a6.83,6.83,0,0,1,6-3c4.21,0,8.37,2.29,8.37,8.16v14H569.1V176.35Z"/><path class="cls-1" d="M583.63,182.63c0.24,2.33,2.21,3.54,4.49,3.54,3.37,0,4.29-1.83,4.29-3.12s-0.92-2.29-3.83-3.08l-3.79-1c-3.2-.87-4.41-3-4.41-5.57,0-3.58,2.71-6.58,7.74-6.58,5.53,0,7.45,3.5,7.45,6.75h-3.49c-0.3-2.46-1.55-3.66-4-3.66s-3.91,1.41-3.91,3.12c0,1.21.66,2.12,2.41,2.62l5.08,1.45c3.41,1,4.54,2.87,4.54,5.67,0,4.41-3.87,6.74-7.87,6.74-5.08,0-8-2.7-8.16-6.82h3.5Z"/><path class="cls-1" d="M135.59,81.29a1,1,0,0,0-1.09-1.1H122.55a29.08,29.08,0,0,0-6.19.61,11,11,0,0,0-4.82,2.3,10.81,10.81,0,0,0-3.12,4.77,23.7,23.7,0,0,0-1.1,7.89,20.56,20.56,0,0,0,1.1,7.34,10.57,10.57,0,0,0,3.06,4.49,11.38,11.38,0,0,0,4.77,2.31,27.91,27.91,0,0,0,6.3.65H134.5a1,1,0,0,0,1.09-1.09V81.29Zm0-15.56V46.44a1,1,0,0,1,1.09-1.1h11.18a1,1,0,0,1,1.09,1.1v76.37a1,1,0,0,1-1.09,1.09H113.79a14.9,14.9,0,0,1-9-2.68,21.69,21.69,0,0,1-6.13-6.85,32.93,32.93,0,0,1-3.56-9.1A42,42,0,0,1,94,95.75a56.67,56.67,0,0,1,1.15-11.83,27.63,27.63,0,0,1,3.56-9.15,17.08,17.08,0,0,1,6.13-5.86,18.13,18.13,0,0,1,9-2.08H134.5a1,1,0,0,0,1.09-1.1"/><path class="cls-1" d="M187.09,66.83a1,1,0,0,1,1.09,1.09V79.1a1,1,0,0,1-1.09,1.1H176.57a2.91,2.91,0,0,0-1.75.55A7.1,7.1,0,0,0,173.45,82a5.43,5.43,0,0,0-.94,1.54,3.94,3.94,0,0,0-.32,1.48v37.8a1,1,0,0,1-1.1,1.09H158.82a1,1,0,0,1-1.1-1.09V81.18a13.49,13.49,0,0,1,1.15-5.48A14.68,14.68,0,0,1,162,71.1,14.91,14.91,0,0,1,166.6,68a13.81,13.81,0,0,1,5.59-1.15h14.9Z"/><path class="cls-1" d="M196.56,67.92a1,1,0,0,1,1.09-1.09h11.18a1,1,0,0,1,1.1,1.09v54.89a1,1,0,0,1-1.1,1.09H197.65a1,1,0,0,1-1.09-1.09V67.92Zm1.09-22.57h11.18a1,1,0,0,1,1.1,1.1V57.62a1,1,0,0,1-1.1,1.1H197.65a1,1,0,0,1-1.09-1.1V46.44a1,1,0,0,1,1.09-1.1"/><path class="cls-1" d="M222.68,45.35h11.18a1,1,0,0,1,1.09,1.1v76.37a1,1,0,0,1-1.09,1.09H222.68a1,1,0,0,1-1.09-1.09V46.44a1,1,0,0,1,1.09-1.1"/><path class="cls-1" d="M247.7,45.35h11.18a1,1,0,0,1,1.1,1.1v76.37a1,1,0,0,1-1.1,1.09H247.7a1,1,0,0,1-1.09-1.09V46.44a1,1,0,0,1,1.09-1.1"/><path class="cls-1" d="M271.64,67.92a1,1,0,0,1,1.09-1.09h11.18a1,1,0,0,1,1.1,1.09v54.89a1,1,0,0,1-1.1,1.09H272.73a1,1,0,0,1-1.09-1.09V67.92Zm1.09-22.57h11.18a1,1,0,0,1,1.1,1.1V57.62a1,1,0,0,1-1.1,1.1H272.73a1,1,0,0,1-1.09-1.1V46.44a1,1,0,0,1,1.09-1.1"/><path class="cls-1" d="M307.86,120.4c0,2.34-1,3.51-3.08,3.51h-7.33a2.37,2.37,0,0,1-2.25-1.32,6.32,6.32,0,0,1-.72-3.07V74.06a6.92,6.92,0,0,1,2.25-5,7.79,7.79,0,0,1,5.76-2.25h24.76a17.16,17.16,0,0,1,7.35,1.59,20.33,20.33,0,0,1,6,4.22,19,19,0,0,1,4,6,17.87,17.87,0,0,1,1.43,7v37.14a1,1,0,0,1-1.2,1.09H333.72a1,1,0,0,1-1.1-1.09V88a10.55,10.55,0,0,0-.82-4.49,6.54,6.54,0,0,0-2.3-2.74A9.44,9.44,0,0,0,326,79.37a22.4,22.4,0,0,0-4.28-.38H311.14a3.41,3.41,0,0,0-2.24.87,2.47,2.47,0,0,0-1,1.86V120.4Z"/><path class="cls-1" d="M369.44,102.32a10.14,10.14,0,0,0,2.79,4.6,12,12,0,0,0,5.31,2.74,33.76,33.76,0,0,0,8.38.87h7a1,1,0,0,0,1.1-1.09V81.29a1,1,0,0,0-1.1-1.1H378.59q-5.26,0-7.62,3.4t-2.36,9.31v2.84a23,23,0,0,0,.82,6.57m-8.82,31.45H390.2a3,3,0,0,0,2.19-.76,4.9,4.9,0,0,0,1.15-1.81,7.35,7.35,0,0,0,.44-2.3c0-.84.06-1.59,0.06-2.25v-2.74H377.72a22,22,0,0,1-8.49-1.75,22.93,22.93,0,0,1-7.62-5.21,27.23,27.23,0,0,1-5.54-8.43,28.88,28.88,0,0,1-2.13-11.46v-7a28.74,28.74,0,0,1,1.31-8.65,21.23,21.23,0,0,1,4.06-7.4,19.91,19.91,0,0,1,7.07-5.2,24.51,24.51,0,0,1,10.25-2h25.31a7,7,0,0,1,4.38,1.26A4.85,4.85,0,0,1,408,72.19v58.73a12.89,12.89,0,0,1-1.14,5,18.45,18.45,0,0,1-3.13,4.93,17.54,17.54,0,0,1-4.6,3.72A11.18,11.18,0,0,1,393.5,146H360.63a1,1,0,0,1-1.1-1.09V134.86a1,1,0,0,1,1.1-1.09"/><path class="cls-2" d="M418.77,67.92a1,1,0,0,1,1.1-1.09H431a1,1,0,0,1,1.09,1.09v54.89a1,1,0,0,1-1.09,1.09H419.86a1,1,0,0,1-1.1-1.09V67.92Zm1.1-22.57H431a1,1,0,0,1,1.09,1.1V57.62a1,1,0,0,1-1.09,1.1H419.86a1,1,0,0,1-1.1-1.1V46.44a1,1,0,0,1,1.1-1.1"/><path class="cls-2" d="M455.45,120.4c0,2.34-1,3.51-3.07,3.51H445a2.38,2.38,0,0,1-2.25-1.32,6.3,6.3,0,0,1-.71-3.07V74.06a6.92,6.92,0,0,1,2.24-5,7.8,7.8,0,0,1,5.75-2.25h24.76a17.16,17.16,0,0,1,7.34,1.59,20.34,20.34,0,0,1,6,4.22,19.2,19.2,0,0,1,4,6,18.1,18.1,0,0,1,1.42,7v37.14a1,1,0,0,1-1.21,1.09H481.31a1,1,0,0,1-1.1-1.09V88a10.54,10.54,0,0,0-.82-4.49,6.49,6.49,0,0,0-2.3-2.74,9.46,9.46,0,0,0-3.45-1.37,22.36,22.36,0,0,0-4.27-.38H458.73a3.41,3.41,0,0,0-2.24.87,2.46,2.46,0,0,0-1,1.86V120.4Z"/><path class="cls-2" d="M521.18,65.73a1,1,0,0,0,1.1,1.1h9a1,1,0,0,1,1.1,1.09V79.1a1,1,0,0,1-1.1,1.09h-9a1,1,0,0,0-1.1,1.1v41.53a1,1,0,0,1-1.09,1.09H508.92a1,1,0,0,1-1.1-1.09V81.29a1,1,0,0,0-1.09-1.1h-5.81a1,1,0,0,1-1.1-1.09V67.92a1,1,0,0,1,1.1-1.09h5.81a1,1,0,0,0,1.09-1.1v-6.9A11.46,11.46,0,0,1,509,54a15.7,15.7,0,0,1,3-4.33A16.66,16.66,0,0,1,516,46.55a9.34,9.34,0,0,1,4.44-1.21h15.67a1,1,0,0,1,1.09,1.1V57.62a0.88,0.88,0,0,1-.87,1.1H525.57a2.52,2.52,0,0,0-1.31.49,7.47,7.47,0,0,0-1.43,1.21,8.91,8.91,0,0,0-1.15,1.53,3,3,0,0,0-.5,1.48v2.3Z"/><path class="cls-2" d="M581.67,85.67a3.71,3.71,0,0,0-.82-2.36,6.75,6.75,0,0,0-2.13-1.75,10.5,10.5,0,0,0-3-1,16.74,16.74,0,0,0-3.29-.33H560.53a15,15,0,0,0-2.85.28,8.36,8.36,0,0,0-2.58.93,5.85,5.85,0,0,0-1.91,1.75,4.44,4.44,0,0,0-.77,2.63v17.53a6.45,6.45,0,0,0,.93,3.62,6.88,6.88,0,0,0,2.36,2.24,8.94,8.94,0,0,0,3.06,1.1,18.87,18.87,0,0,0,3.08.27h10.07a12.36,12.36,0,0,0,6.85-1.86,5.48,5.48,0,0,0,2.9-4.71V85.67Zm13.47,16.1A42.71,42.71,0,0,1,594,112.62a15.8,15.8,0,0,1-3.5,6.8,12.48,12.48,0,0,1-6,3.51,33.51,33.51,0,0,1-8.65,1H556.36A17.13,17.13,0,0,1,548,122.1a14.89,14.89,0,0,1-5.26-4.71,18.08,18.08,0,0,1-2.73-6.57,36.59,36.59,0,0,1-.77-7.51V84a17.68,17.68,0,0,1,1.38-7.12,16.59,16.59,0,0,1,3.66-5.42A16,16,0,0,1,549.73,68a18.3,18.3,0,0,1,6.63-1.2h22.13a17.45,17.45,0,0,1,6,1.09,16.06,16.06,0,0,1,5.37,3.23,16.86,16.86,0,0,1,3.83,5.15,15.46,15.46,0,0,1,1.49,7v18.52Z"/></svg>