<?xml version="1.0" encoding="utf-8"?>
<!-- Generator: Adobe Illustrator 19.2.1, SVG Export Plug-In . SVG Version: 6.00 Build 0)  -->
<svg version="1.1" id="Layer_1" xmlns="http://www.w3.org/2000/svg" xmlns:xlink="http://www.w3.org/1999/xlink" x="0px" y="0px"
	 viewBox="0 0 59.2 123.3" style="enable-background:new 0 0 59.2 123.3;" xml:space="preserve">
<style type="text/css">
	.st0{
		fill:red;
	}
</style>
<path class="st0" d="M34.5,83.4l12.1-13.8l2.3,30.5L34.5,83.4z M12.5,69.4l12.4,14l-14.8,16.8L12.5,69.4z M16.4,63.2l13.2-16.3
	L43,63.2L29.7,78L16.4,63.2z M15.5,29.7L25,41.2L13.5,55.5L15.5,29.7z M34.2,41.2l9.4-11.7l2,25.7L34.2,41.2z M18.6,21.1h22.3
	L29.5,35.6L18.6,21.1z M20.3,6h18.5v7.2H20.3V6z M13.7,0v13.2H5.2v8.1h4.5L0,123.3h8.3l0.9-11.9l20.4-22.7l20.1,22.4l0.9,12.2h8.4
	l-9.8-102h5.2v-8.1h-9.1V0H13.7z"/>
<path class="st0" d="M34.5,83.4l12.1-13.8l2.3,30.5L34.5,83.4z M12.5,69.4l12.4,14l-14.8,16.8L12.5,69.4z M16.4,63.2l13.2-16.3
	L43,63.2L29.7,78L16.4,63.2z M15.5,29.7L25,41.2L13.5,55.5L15.5,29.7z M34.2,41.2l9.4-11.7l2,25.7L34.2,41.2z M18.6,21.1h22.3
	L29.5,35.6L18.6,21.1z M20.3,6h18.5v7.2H20.3V6z M13.7,0v13.2H5.2v8.1h4.5L0,123.3h8.3l0.9-11.9l20.4-22.7l20.1,22.4l0.9,12.2h8.4
	l-9.8-102h5.2v-8.1h-9.1V0H13.7z"/>
</svg>